<svg width="58" height="66" viewBox="0 0 58 66" fill="none" xmlns="http://www.w3.org/2000/svg">
<path d="M28.9634 61.1478C26.5796 54.5461 19.3285 53.2453 13.5576 51.8913C8.82376 50.7804 5.12617 48.0321 3.47014 43.8636C-0.69154 34.7071 7.26791 27.8499 8.37264 19.4999C8.92465 15.3853 6.52709 12.1586 4.27798 9.02535L8.10312 4.66904C14.4599 7.90948 23.3742 7.0821 28.9634 2.76608C34.5527 7.0821 43.467 7.91523 49.8245 4.6748L52.4915 8.89945C50.2424 12.0327 49.0022 15.3911 49.5549 19.505C50.659 27.855 58.6191 34.7128 54.4567 43.8693C52.8007 48.0372 49.1038 50.7855 44.3692 51.8963C38.5991 53.2503 31.3473 54.5461 28.9634 61.1478Z" fill="#383B9B"/>
<path fill-rule="evenodd" clip-rule="evenodd" d="M28.9634 61.1478C26.5796 54.5461 19.3285 53.2453 13.5576 51.8913C8.82376 50.7804 5.12617 48.0321 3.47014 43.8636C-0.69154 34.7071 7.26791 27.8499 8.37264 19.4999C8.92465 15.3853 6.52709 12.1586 4.27798 9.02534L8.10312 4.66903C14.4599 7.90946 23.3742 7.08209 28.9634 2.76607C34.5527 7.08209 43.467 7.91522 49.8245 4.67479L52.4915 8.89943C50.2424 12.0327 49.0022 15.3911 49.5549 19.5049C50.659 27.855 58.6191 34.7128 54.4567 43.8693C52.8007 48.0371 49.1038 50.7855 44.3692 51.8963C38.5991 53.2503 31.3473 54.5461 28.9634 61.1478Z" stroke="#F6EE07" stroke-width="3" stroke-linecap="square"/>
<path d="M12.6035 38.8224L12.6035 21.718L43.4057 21.8619V38.8224L12.6035 38.8224Z" fill="#F6EE07" stroke="#231F20"/>
<path d="M14.3231 15.7588L42.2759 15.7588L44.7282 21.8619L11.6538 21.8619L14.3231 15.7588Z" fill="#6C696A" stroke="#231F20"/>
<path d="M16.8955 26.3276H14.7314V23.0864H16.8955V26.3276Z" fill="#231F20"/>
<path d="M16.8955 30.2162H14.7314V26.9758H16.8955V30.2162Z" fill="#231F20"/>
<path d="M16.8955 34.2135H14.7314V30.9724H16.8955V34.2135Z" fill="#231F20"/>
<path d="M21.801 26.3276H19.637V23.0864H21.801V26.3276Z" fill="#231F20"/>
<path d="M21.801 30.2162H19.637V26.9758H21.801V30.2162Z" fill="#231F20"/>
<path d="M21.801 34.2135H19.637V30.9724H21.801V34.2135Z" fill="#231F20"/>
<path d="M40.7127 34.2135H38.5486V30.9724H40.7127V34.2135Z" fill="#231F20"/>
<path d="M40.8445 26.3276H38.6812V23.0864H40.8445V26.3276Z" fill="#231F20"/>
<path d="M40.8445 30.2162H38.6812V26.9758H40.8445V30.2162Z" fill="#231F20"/>
<path d="M38.0318 38.8224H35.1104V33.997H38.0318V38.8224Z" fill="#231F20"/>
<path d="M24.8826 44.4694L26.0709 53.8827V54.3403C26.0709 54.3403 26.3325 54.895 26.7908 54.895C27.2491 54.895 27.7723 54.8295 27.8379 54.6662C27.9035 54.5036 27.8055 53.0007 27.8379 51.7265C27.8703 50.4524 27.9691 49.5048 28.1975 48.5904C28.4267 47.6753 28.7214 46.7285 28.6558 46.0752C28.5902 45.4219 28.6652 43.7549 28.6652 43.7549L24.8826 43.5269V44.4694Z" fill="#6C696A" stroke="#231F20" stroke-width="0.5"/>
<path d="M32.5168 43.8535C32.5168 43.8535 32.5176 45.8133 33.3679 47.2184C34.2183 48.6228 35.2149 50.4128 35.4621 51.3999C35.6913 52.3143 35.6913 53.2295 35.6913 53.2295C35.6913 53.2295 37.2414 53.1309 37.4972 52.9352C37.753 52.7388 35.7568 43.5269 35.7568 43.5269L32.5168 43.8535Z" fill="#6C696A" stroke="#231F20" stroke-width="0.5"/>
<path d="M25.8667 54.4094C25.8667 54.4094 24.6921 55.7634 24.5811 56.1095C24.4334 56.5692 24.2972 56.775 24.2316 57.1548C24.1754 57.4822 24.5119 58.3909 25.2643 58.0966C26.0166 57.8023 26.5874 57.5146 26.9477 57.0246C27.3073 56.5339 27.5365 56.5339 27.5365 56.5339L28.3861 55.9044L28.0337 54.3238L27.5365 54.5741C27.5365 54.5741 27.0284 54.8706 26.6212 54.8008C26.2141 54.7317 25.7694 54.2475 25.7694 54.2475" fill="#231F20"/>
<path d="M35.457 53.3187C35.457 53.3187 35.2358 54.2748 35.3994 54.6015C35.563 54.9281 35.5298 55.0583 36.2829 55.026C37.0352 54.9936 37.4611 54.7418 37.9187 55.031C38.3771 55.3202 38.932 55.708 39.2606 55.7123C40.4684 55.7267 40.9541 55.0849 40.9541 55.0849L41.0931 54.808C41.0931 54.808 40.2745 54.2094 40.0785 54.1763C39.8825 54.1439 38.4095 53.5561 38.7698 53.7518C38.8858 53.8151 38.2293 53.5345 38.0802 53.2295C37.9843 53.0331 37.7285 52.9352 37.7285 52.9352L35.457 53.3187Z" fill="#231F20"/>
<path d="M28.2435 9.6484L31.2407 9.64912L32.5169 11.6751V14.109L31.797 16.3142L29.8693 18.3768L27.734 17.2451L26.7734 15.3832L27.3608 11.0499L27.8587 9.6484H28.2435Z" fill="white"/>
<path d="M29.8483 13.3083L30.1286 14.9091H29.6083L29.2285 14.7961L29.8684 14.7134L29.8483 13.3083Z" fill="#231F20"/>
<path d="M28.7119 15.5904L30.5049 15.535L30.2735 15.7861L28.7119 15.5904Z" fill="#231F20"/>
<path d="M23.5838 20.1359L21.5876 29.3162L23.4202 33.7265L25.2031 33.0142L25.384 32.9422L24.6965 29.7083L23.7474 29.6097L24.6309 29.545L25.384 25.9837L25.384 30.0673L25.58 31.9623L23.9441 34.2164L23.5838 36.6014L23.7805 44.3435L26.0707 44.6046L26.2999 40.031V44.932L27.9357 44.7356L28.0993 40.3253V44.5068L29.3432 44.6701L29.5067 41.6649V44.5068L30.8154 44.7356V40.6196L30.783 44.932L32.8101 45.0133V41.3376L33.1712 44.7356L36.9675 43.9837L34.1203 35.0985L32.3864 35.1963L31.9605 34.2819L31.8301 33.6934L33.5639 33.3013L34.2838 34.8373L36.378 31.9292L37.4972 29.1529L35.8873 20.659L23.5838 20.1359Z" fill="#EF3443" stroke="#231F20" stroke-width="0.5"/>
<path d="M34.9058 25.8203V29.6176L33.3679 33.3459L34.1203 35.0985L34.2839 34.8373" stroke="#231F20"/>
<path d="M18.3614 12.6176C17.9636 12.1737 17.6602 11.7147 17.5117 11.596C17.5117 11.596 24.187 17.5092 24.4817 18.1624C24.7758 18.8157 23.8598 19.0114 23.8598 19.0114C23.8598 19.0114 20.155 14.6206 18.3614 12.6176Z" fill="#231F20"/>
<path fill-rule="evenodd" clip-rule="evenodd" d="M18.3614 12.6176C17.9636 12.1737 17.6602 11.7147 17.5117 11.596C17.5117 11.596 24.187 17.5092 24.4817 18.1625C24.7758 18.8157 23.8598 19.0114 23.8598 19.0114C23.8598 19.0114 20.155 14.6206 18.3614 12.6176Z" stroke="#231F20"/>
<path d="M22.8316 21.8353C22.8316 21.8353 18.9358 15.3407 18.2822 12.432" stroke="#231F20" stroke-width="2"/>
<path d="M25.2197 30.627C25.2197 30.627 31.2046 31.3465 34.4806 30.627C34.6622 30.5867 34.1369 31.4069 34.1369 31.4069H25.5224L25.2197 30.627Z" fill="#453547" stroke="#231F20"/>
<path d="M29.2358 27.6902C29.2358 27.6902 28.3854 27.0413 28.2543 28.0291C28.1239 29.0169 29.2358 30.4687 29.2358 30.4687L30.396 30.1105L29.2358 27.6902Z" fill="#453547" stroke="#231F20"/>
<path fill-rule="evenodd" clip-rule="evenodd" d="M30.6843 30.3328L32.4247 29.7104V30.022L30.6843 30.3328Z" stroke="#231F20" stroke-width="2"/>
<path d="M29.7222 31.6681H30.8485L36.0508 43.2981C36.0508 43.2981 35.6912 43.5269 35.3309 43.2657C34.9713 43.0038 29.7222 31.6681 29.7222 31.6681Z" fill="#453547"/>
<path fill-rule="evenodd" clip-rule="evenodd" d="M29.7222 31.6681H30.8485L36.0508 43.2981C36.0508 43.2981 35.6912 43.5269 35.3309 43.2657C34.9713 43.0038 29.7222 31.6681 29.7222 31.6681Z" stroke="#231F20" stroke-width="0.5"/>
<path d="M31.5671 13.8428C31.5318 15.0235 31.4698 16.1178 31.4698 16.1178C31.3393 16.412 29.7222 17.7516 29.7222 17.7516C29.7222 17.7516 27.7722 16.902 27.7073 16.1832C27.6418 15.4645 27.6972 11.119 27.6972 11.119C27.6972 11.119 29.2084 11.6974 29.6783 11.9917C29.6783 11.9917 31.1102 11.0218 31.4374 10.9564C31.6146 10.9211 31.6096 12.4428 31.5671 13.8428ZM37.4907 22.4231C36.9084 17.7178 32.5824 16.3796 32.5824 16.3796C34.2183 8.96348 29.8484 7.19937 29.8484 7.19937C29.8484 7.19937 25.5476 8.21236 26.5947 15.7911C27.6418 23.3706 26.6927 16.5429 26.6927 16.5429C22.5699 17.6207 21.948 23.1094 21.948 23.1094C25.6124 21.6389 30.03 27.2902 30.03 27.2902C33.1712 22.9785 37.3596 23.2073 37.3596 23.2073C37.3596 23.2073 37.3797 23.1533 37.4042 23.0699C37.4518 22.9087 37.5174 22.6353 37.4907 22.4231Z" fill="#231F20"/>
<path d="M29.5241 12.8579L28.1909 12.7608V13.0615L29.5241 12.8579Z" fill="#231F20"/>
<path d="M29.9304 12.8471L31.0798 12.6967L31.0099 12.8471L30.9408 12.9982L29.9304 12.8471Z" fill="#231F20"/>
<path d="M27.6013 13.7054L27.6755 14.0126L27.9307 14.3465L27.6013 15.6602V13.7054Z" fill="#231F20"/>
<path d="M31.2256 14.4328L31.6594 15.6602L31.7805 13.7925L31.2256 14.4328Z" fill="#231F20"/>
<path d="M28.2688 16.3048L28.3329 16.4904L29.6877 17.2509L30.7795 16.3048" fill="white"/>
<path d="M31.9951 33.6559L33.2742 33.3674L34.0172 34.8582L32.5435 35.0985L31.9951 33.6559Z" fill="white"/>
<path d="M29.6084 15.8825H29.9327L29.7223 16.1142L29.6084 15.8825Z" fill="#231F20"/>
</svg>
